<?xml version="1.0" encoding="UTF-8"?>
<!-- Created by: HiData.org -->
<svg width="1024pt" height="1024pt" version="1.1" viewBox="0 0 1024 1024" xmlns="http://www.w3.org/2000/svg">
<g fill="#e5ad26">
<path d="m466.2 22.41c1.22-0.19 2.45-0.33 3.7-0.4 2.24 7.75 2.83 16.11 6.95 23.21 9.04 15.84 22.5 28.57 31.76 44.27 5.57 9.59 6.76 21.7 2.77 32.1-6.44 17.02-16.96 32.01-26.46 47.41-4.9 7.97-10.95 15.14-15.96 23.04-3.65 6.23-8.5 11.87-14.79 15.53-1.28-7.85 1.58-16.16-1.76-23.7-8.79-18.6-27.61-30.29-35.6-49.38-2.8-8.91-1.88-18.91 2.16-27.31 11.61-23.86 25.27-46.65 38.55-69.6 2.97-5.01 4.63-10.87 8.68-15.17z"/>
<path d="m532.87 185.44c15.68-1.99 32.36-2.09 47.05 4.48 25.26 10.83 44.4 34.85 49.11 61.95 3.81 14.37 4.76 29.35 3.97 44.16-0.23 15.35-3.93 30.48-9.22 44.83-7.72 20.46-19.56 39.38-34.67 55.2-9.58 9.46-18.7 19.48-29.52 27.57-13.66 10.46-29.54 18.67-46.75 20.96-8.59 1.12-17.1 3.59-25.83 3.1-23.44-1.81-46.47-7.39-68.57-15.29-16.54-6.09-33.33-11.41-50.02-17.05-12.04-2.98-23.98-7.24-36.51-7.37-5.66-0.09-9.11 5.28-10.85 9.99-5.15 14.73-9.05 29.85-12.99 44.93-2.02 8.2-4.59 16.27-5.87 24.64-1.5 9.42-2.46 18.92-3.52 28.39-1.68 22.66 1.75 45.64 9.71 66.9 5.32 13.91 14.68 26.67 27.77 34.14 18.03 11.28 40.65 10.81 60.76 6.41 20.07-5.12 39.76-11.93 58.34-21.12 16.59-8.12 32.06-18.29 47.28-28.71 31.44-21.63 63.09-42.94 94.9-64.03 17.81-11.52 36.43-21.8 55.75-30.57 8.85-4.05 18.32-6.44 27.72-8.86 6.81-1.5 14.43-1.2 20.46 2.64 3.57 2.34 6.57 5.42 9.96 8 5.2 4.26 11.8 6.5 16.6 11.3 4.6 4.67 9.57 10.46 8.51 17.53-9.24 0.8-18.37-2.77-27.58-0.88-13.27 1.64-25.01 8.41-36.74 14.34-10.16 5.1-19.36 11.85-28.73 18.22-13.83 9.42-27.67 18.87-40.61 29.5-32.36 24.9-62.87 52.19-96.36 75.62-15.41 10.78-31.21 21.03-47.51 30.44-19.37 10.26-39.18 20.37-60.67 25.37-20.26 5.05-41.63 8.9-62.36 4.36-13.64-2.83-28.13-5.99-38.77-15.61-13.23-12.29-20.17-29.55-25.4-46.44-2.88-12.3-5.86-24.73-5.86-37.44 0.12-7.05-1.93-14.05-0.92-21.09 1.77-10.56 0.17-21.37 2.17-31.9 2.44-12.2 3.51-24.62 6.06-36.8 3.23-13.15 5.91-26.45 9.75-39.46 4.37-15.38 9.44-30.55 14.55-45.69 2.52-7.53 7.82-14.37 7.33-22.67-6.72-1.51-13.56 0.33-19.86 2.64-6.09 2.33-12.36 4.29-18.06 7.54-6.89 3.69-13.08 8.5-19.49 12.94-1.93 1.4-5.36 2.26-6.79-0.25-1.12-2.35-0.48-5.1 0.45-7.39 7.66-19.5 22.86-35.52 40.99-45.75 6.62-3.08 11.96-8.17 16.63-13.68 7.43-8.69 16.26-16.29 26.51-21.46 5.01-2.74 10.83-3.85 15.44-7.37 4.31-2.99 7.49-7.28 10.05-11.8 23.55-38.53 53.85-73.37 90.89-99.45 6.86-5.8 14.98-9.72 22.88-13.87 21.16-12.32 44.03-22.58 68.44-26.09m-69.39 57.23c-15.47 5.99-29.13 15.57-42.28 25.5-11.68 9.24-21.9 20.12-32.29 30.74-7.22 7.59-12.65 16.64-19.63 24.43-2.59 2.73-1.54 6.71-1.43 10.07 13.02 0.29 26.05 1.2 38.95 3.02 38.05 7.21 73.6 23.37 111.1 32.68 10.11 3.17 20.72 3.9 31.15 5.4 7.38 1.06 14.81-0.35 22.07-1.64 7.43-1.34 11.66-8.16 16.84-12.93 9.36-9.03 13.48-22.21 14.22-34.91-0.42-11.61 0.96-23.34-0.92-34.87-3-12.36-9.96-23.61-18.72-32.72-6.47-5.98-13.21-11.92-21.25-15.68-10.55-4.61-21.73-7.89-33.19-9.05-21.93-2.01-44.22 1.79-64.62 9.96z"/>
<path d="m715.2 532.33c9.82-4.77 21.09-5.58 31.81-4.34 4.98 0.78 8.63 4.57 12.11 7.9 5.78 5.6 13.12 9.5 18.15 15.89 3.43 4.5 7.26 9.44 6.69 15.47-1.3 0.55-2.54 1.49-4.02 1.3-4.67-0.12-9.31-0.89-13.99-0.72-9.12 0.27-18.07 2.88-26.21 6.93-17.81 8.54-33.64 20.59-48.71 33.23-13.23 11.41-26.41 22.92-38.6 35.45-15.46 15.55-31.04 30.98-47.33 45.68-12.37 12.29-25.17 24.15-38.34 35.59-13.03 11.33-27.34 21.1-42.29 29.71-10.16 5.78-21.04 10.52-32.54 12.86-16.77 2.82-34.23 4.17-50.86-0.25-5.38-1.34-10.6-3.24-15.63-5.55-8.35-3.87-17.89-3.74-26.33-7.36-11.81-4.89-23.18-12.25-30.09-23.27-1.83-2.67-1.47-6.02-1.41-9.07 6.39-0.16 12.08 2.95 18.17 4.31 20.57 2.71 41.28-1.84 60.68-8.49 7.14-2.57 14.45-4.74 21.33-7.98 11.33-5.19 21.89-11.84 32.65-18.08 17.82-10.33 33.93-23.3 49.57-36.62 28.78-24.95 57.81-49.63 87.85-73.06 23.85-19.23 48.8-37.82 77.34-49.53z"/>
</g>
<g fill="#434343">
<path d="m694.31 803c1.6-1.62 3.2-3.23 4.82-4.82 1.6 1.6 3.2 3.21 4.8 4.82-1.6 1.6-3.2 3.21-4.8 4.82-1.62-1.61-3.22-3.21-4.82-4.82z" opacity=".89"/>
<path d="m915.09 805.23c1.58-1.61 3.18-3.21 4.78-4.8 1.61 1.59 3.21 3.2 4.82 4.81-1.61 1.61-3.21 3.21-4.81 4.82-1.61-1.61-3.21-3.22-4.79-4.83z" opacity=".89"/>
<path d="m63.15 860.39c-12.76-16.98-12.84-42.37 0.37-59.11 1.71 1.48 3.41 2.97 5.11 4.46-5.15 8.08-8.74 17.52-8.13 27.24 0.27 8.22 3.13 16.24 7.9 22.91-1.74 1.5-3.49 3.01-5.25 4.5z" opacity=".89"/>
<path d="m575.18 805.79c1.71-1.53 3.43-3.05 5.17-4.55 13.13 16.8 13.15 42.15 0.36 59.14-1.76-1.47-3.52-2.95-5.27-4.42 6.24-8.91 9.24-20.22 7.46-31.02-1.06-6.88-3.94-13.35-7.72-19.15z" opacity=".89"/>
<path d="m101.71 803.71c2.27-0.01 4.53-0.01 6.8 0 0.01 15.43-0.01 30.87 0.02 46.31 0 4.37-0.86 9.12-4.1 12.31-4.23 4.39-10.77 5.01-16.53 4.7-6.62-0.11-12.89-4.87-14.67-11.26-2.15-7.39 0.21-15.04 3.24-21.8 2.18 0.92 4.34 1.88 6.49 2.88-2.07 4.91-4.5 10.18-3.32 15.64 0.64 4 4.3 7.24 8.33 7.46 3.89 0.19 8.36 0.27 11.43-2.55 2.05-2.25 2.18-5.51 2.31-8.39 0.01-15.1-0.02-30.2 0-45.3z" opacity=".89"/>
<path d="m117 803.49c2.33-0.01 4.67-0.01 7 0 0.02 10.86-0.05 21.72 0.04 32.58 0.09 2.23 0.19 5.62 3.06 6.02 4.93 0.78 9.96 0.33 14.93 0.39 2.23 0.15 4.18-0.95 5.98-2.12-0.03-4.3-0.01-8.59-0.01-12.87 2.33-0.01 4.67-0.01 7 0 0.08 3.76-0.18 7.55 0.17 11.31 0.23 2.33 2.59 3.67 4.76 3.64 5.36 0.14 10.73 0.05 16.09 0.04 2.22 0.17 4.17-0.95 5.98-2.08-0.01-4.31 0-8.61 0-12.91 2.33-0.01 4.67-0.01 7 0 0.29 4.2-0.64 8.62 0.62 12.69 2.49 3.65 7.66 1.9 11.39 2.33 11.25 0.71 22.53-2.02 32.38-7.43-5.74-2.03-11.4-4.39-17.3-5.93-2.8-0.95-4.4 1.92-5.78 3.77-2.11-0.62-4.21-1.24-6.31-1.87 1.47-3.28 3.06-7.03 6.65-8.45 3.77-1.92 7.93 0 11.6 1.23 6.46 2.45 12.93 4.89 19.41 7.3 0.12 1.88 0.79 3.82 0.42 5.7-1.48 1.45-3.22 2.59-4.78 3.96 5.38 3.08 11.79 1.19 17.66 1.72 3.54-0.18 9.23 1.16 10.36-3.54 0.48-4.76-1.18-9.42-2-14.06 2.2-0.67 4.4-1.34 6.61-2 1.07 5.28 2.54 10.62 2.24 16.06-0.35 5.7-5.45 10.52-11.18 10.49-6.65 0.09-13.3 0.17-19.94-0.05-4.15-0.1-7.57-2.8-9.89-6.03-8.15 3.84-17.04 6.55-26.14 6.15-6.51-0.36-13.77 1.37-19.46-2.72-6.17 3.95-13.7 2.41-20.59 2.72-4.61 0.18-9.51 0.13-13.4-2.72-4.04 2.53-8.84 2.94-13.5 2.73-5.54-0.23-11.57 0.76-16.66-1.97-3.97-2.3-4.3-7.4-4.41-11.49-0.02-10.86 0.02-21.73 0-32.59z" opacity=".89"/>
<path d="m363 803.49c2.33-0.01 4.66-0.01 7 0 0.02 10.87-0.05 21.74 0.04 32.61 0.11 2.17 0.15 5.44 2.89 5.94 4.31 0.88 8.76 0.35 13.12 0.35-2.33-3.3-4.29-7.15-3.56-11.32 0.7-7.08 9.01-11.16 15.45-9.38 5.76 1.33 10.07 7.35 9.31 13.24-0.25 3.48-2.53 6.27-4.47 9 3.74 0.51 8.51 1.46 11.28-1.89 1.85-1.9 0.84-4.76-0.32-6.72-3.54-5.99-8.34-11.08-12.57-16.57 1.84-1.39 3.69-2.77 5.54-4.15 3.99 5.27 7.99 10.54 12.03 15.77 2.79 3.47 3.51 8.33 2.24 12.56-1.62 5.51-7.52 8.51-12.99 8.4-4.64 0.42-8.76-1.9-13.03-3.24-8.44 1.06-17.19 2.59-25.57 0.4-4.57-1.23-6.31-6.21-6.3-10.48-0.24-11.5-0.02-23.02-0.09-34.52m29.16 24.69c-1.79 0.88-3.37 2.7-3.17 4.82-0.01 3.57 3.2 6.15 6.12 7.63 3.36-1.07 6.25-4.87 5.52-8.54-0.91-3.44-5.24-5.75-8.47-3.91z" opacity=".89"/>
<path d="m487 803.49c2.33-0.01 4.66-0.01 7 0 0.02 10.85-0.05 21.7 0.04 32.55 0.18 1.98 0 4.77 2.17 5.78 3.79 1.05 7.82 0.77 11.72 0.55 1.9-0.02 3.69-1.53 4-3.4 0.53-3.82 0.21-7.69 0.26-11.52 2.37 0.02 4.75 0.04 7.13 0.09 0.02 3.77-0.26 7.56 0.12 11.33 0.71 4.84 9.06 4.84 9.97 0.08 0.6-3.77 0.23-7.61 0.27-11.41 2.37-0.04 4.75-0.07 7.13-0.09 0.1 4.16-0.37 8.38 0.33 12.51 1.99 3.75 8.83 3.4 9.8-0.99 0.64-4.71-0.99-9.36-1.92-13.92 2.21-0.73 4.43-1.44 6.67-2.11 1.34 7.02 4.6 15.27 0.12 21.78-4.11 6.13-13.14 5.93-18.63 1.83-5.15 3.87-12.35 3.76-17.52 0.01-2.57 1.7-5.47 3.04-8.62 2.96-5.2-0.06-10.86 0.6-15.61-1.94-4.01-2.32-4.33-7.47-4.43-11.59-0.02-10.83 0.01-21.67 0-32.5z" opacity=".89"/>
<path d="m775.18 803.49c2.36-0.01 4.73-0.01 7.11 0 0.11 11.45-0.21 22.93 0.13 34.37 0.43 4.65 5.85 5.12 9.48 4.62 2.17 0.01 2.85-2.4 3.51-4.03 1.65-4.95 2.6-10.7 7.07-14.03 4.98-3.49 12.8-2.38 16.4 2.63 3.38 4.61 3.51 10.81 2.27 16.19-0.9 3.83-3.98 7.31-8.04 7.71-5.07 0.72-9.61-2.05-13.99-4.12-5.84 4.25-14.78 3.79-20.29-0.85-6 4.39-13.7 3.59-20.7 3.45 2.39 3.62 2.41 8.65-0.91 11.73-6.58 6.64-16.61 5.97-25.2 5.87-7.76 0.3-15.44-4.79-17.9-12.2-3.01-8.76-0.37-18.26 3.52-26.3 2.05 1.02 4.1 2.04 6.16 3.05-2.87 6.59-5.58 14.26-2.77 21.34 1.62 4.44 6.25 7.19 10.89 7.04 5.66-0.09 11.72 0.75 16.97-1.9 2.02-0.85 3.07-2.84 4.17-4.59-4.32-2.91-9.52-3.68-14.59-4.08 0.01-2.31 0.01-4.62 0.02-6.91 9.51-0.01 19.03 0.03 28.55 0.01 2.73-0.14 5.99-0.34 7.74-2.76 0.53-1.87 0.4-3.85 0.45-5.75-0.08-10.17 0-20.33-0.05-30.49m26.7 37.01c3.57 1.5 7.17 4.01 11.24 3.38 4.66-4.21 2.27-15.48-5.08-14.34-4.47 1.52-4.99 7.03-6.16 10.96z" opacity=".89"/>
<path d="m876 803.49c2.33-0.01 4.66-0.01 7 0 0.02 10.85-0.05 21.7 0.04 32.55 0.17 1.97 0.01 4.7 2.1 5.75 3.48 1.03 7.25 0.93 10.82 0.39 1.72-0.18 3.34-1.49 3.4-3.3 0.32-3.79 0.08-7.6 0.11-11.4h7.06c0.08 3.86-0.4 7.78 0.33 11.6 0.84 4.35 8.32 4.71 9.5 0.38 0.72-3.93 0.23-7.97 0.32-11.93 2.37-0.04 4.75-0.06 7.13-0.08 0.12 4.16-0.43 8.41 0.4 12.52 1.86 3.71 8.89 3.42 9.69-0.99 0.59-3.81 0.23-7.69 0.29-11.53 2.37 0.02 4.75 0.04 7.13 0.09 0.2 4.17-0.67 8.54 0.52 12.6 2.21 3.24 6.8 2.11 10.15 2.39 3.48-0.33 8.71 1.22 10.4-2.95 0.86-4.93-1-9.84-1.84-14.65 2.21-0.68 4.42-1.36 6.63-2.05 1.08 5.28 2.5 10.61 2.24 16.04-0.3 5.83-5.59 10.66-11.41 10.55-6.82-0.12-14.4 1.3-20.36-2.89-4.97 4.01-12.33 3.79-17.37 0.04-5.02 3.8-11.98 3.74-17.08 0.13-6.23 3.69-13.98 3.35-20.79 1.75-4.57-1.22-6.33-6.2-6.32-10.48-0.24-11.51-0.02-23.02-0.09-34.53z" opacity=".89"/>
<path d="m468.42 809.86c1.78-1.77 3.57-3.54 5.37-5.28 1.78 1.81 3.57 3.61 5.36 5.43-1.77 1.77-3.54 3.55-5.3 5.35-1.81-1.85-3.62-3.68-5.43-5.5z" opacity=".89"/>
<path d="m961.66 804.58c1.85 1.78 3.68 3.58 5.51 5.4-1.78 1.78-3.55 3.57-5.3 5.37-1.81-1.84-3.63-3.65-5.43-5.47 1.73-1.77 3.48-3.53 5.22-5.3z" opacity=".89"/>
<path d="m700.55 811.99c1.7-1.72 3.32-3.52 5.24-4.99 1.93 1.42 3.58 3.17 5.29 4.86-1.72 1.71-3.44 3.44-5.16 5.16-1.78-1.7-3.57-3.38-5.37-5.03z" opacity=".89"/>
<path d="m687.04 812.14c1.66-1.76 3.35-3.5 5.06-5.21 1.69 1.67 3.47 3.29 4.98 5.16-1.46 1.91-3.24 3.56-4.98 5.22-1.69-1.72-3.39-3.45-5.06-5.17z" opacity=".89"/>
<path d="m136.16 813.36c1.7-1.7 3.4-3.38 5.12-5.05 1.72 1.73 3.43 3.49 5.13 5.26-1.74 1.71-3.48 3.43-5.22 5.15-1.7-1.77-3.39-3.55-5.03-5.36z" opacity=".89"/>
<path d="m148.97 813.58c1.69-1.74 3.35-3.51 5.01-5.27 1.74 1.71 3.47 3.43 5.21 5.15-1.72 1.76-3.46 3.5-5.2 5.25-1.68-1.71-3.36-3.41-5.02-5.13z" opacity=".89"/>
<path d="m921.28 814.24c1.75-1.75 3.52-3.47 5.31-5.18 1.77 1.66 3.51 3.34 5.24 5.05-1.72 1.71-3.43 3.43-5.13 5.16-1.8-1.69-3.61-3.37-5.42-5.03z" opacity=".89"/>
<path d="m907.99 814.29c1.47-1.85 3.21-3.46 4.87-5.13 1.74 1.74 3.48 3.5 5.2 5.27-1.74 1.71-3.47 3.42-5.2 5.14-1.72-1.68-3.53-3.29-4.87-5.28z" opacity=".89"/>
<path d="m438.94 814.24c2.28-0.54 4.56-1.08 6.86-1.6 1.76 7.11 3.54 14.22 5.22 21.35 0.69 3.09 2.14 6.45 5.39 7.56 4.33 1.55 9.07 0.89 13.59 0.89 2.44 0.19 4.66-1.89 4.67-4.32 0.02-4.49-1.25-8.84-2.1-13.22 2.21-0.66 4.41-1.33 6.62-2.01 1.19 7.17 4.56 15.53-0.08 22.12-4.17 5.72-11.94 4.46-18.09 4.5-5.82 0.14-11.59-2.63-14.64-7.67-4.37 5.25-12.94 6.45-18.24 1.96-5.41-4.57-5.51-13.5-1.03-18.75 3.09-4.04 7.9-6.1 12.48-7.95-0.16-0.72-0.49-2.14-0.65-2.86m-7.18 15.59c-1.68 2.15-2.2 5.57-0.24 7.73 3.39 3.74 10.68 1.48 11.47-3.47 0.39-3.47-0.87-6.82-1.61-10.14-3.49 1.38-7.31 2.73-9.62 5.88z" opacity=".89"/>
<path d="m286.81 818.77c1.95-1.32 3.9-2.63 5.86-3.94 3.84 5.99 7.91 11.82 11.78 17.79 1.88 2.97 3.55 6.61 2.36 10.18-0.97 3.51-4.44 5.51-7.79 6.25-7.63 1.68-16.06 0.84-22.64-3.62 1.17-1.99 2.34-3.97 3.5-5.95 6.12 3.88 14.03 4.28 20.69 1.6-3.33-8.13-9.38-14.75-13.76-22.31z" opacity=".89"/>
<path d="m611.57 819.21c1.38-1.81 3.06-3.34 4.67-4.93 1.73 1.74 3.46 3.5 5.17 5.29-1.74 1.7-3.47 3.42-5.2 5.13-1.51-1.81-3.98-3.22-4.64-5.49z" opacity=".89"/>
<path d="m623.96 819.7c1.67-1.8 3.33-3.61 5.01-5.4 1.74 1.71 3.47 3.43 5.22 5.15-1.72 1.75-3.44 3.5-5.17 5.24-1.7-1.67-3.38-3.34-5.06-4.99z" opacity=".89"/>
<path d="m843.72 824.88c1.75-1.79 3.5-3.56 5.28-5.33 1.81 1.81 3.63 3.62 5.44 5.45-1.78 1.78-3.57 3.56-5.35 5.34-1.78-1.84-3.58-3.66-5.37-5.46z" opacity=".89"/>
<path d="m335.87 825.81c5.29-4.73 12.82-4.93 19.47-3.79-0.59 2.28-1.19 4.55-1.78 6.84-4.48-0.95-9.72-0.89-13.23 2.47-2.64 2.19-3.27 5.71-3.44 8.96 4.44 1.19 8.98 2.03 13.33 3.5 2.54 0.83 3.9 3.54 3.82 6.1 0.09 5.24-1.21 11.4-6.02 14.34-5.66 3.6-12.65 2.69-19.01 2.8-8.07 0.32-15.98-5.22-18.17-13.04-2.63-8.65 0.23-17.74 3.97-25.6 2.08 0.94 4.17 1.9 6.24 2.88-2.84 6.72-5.95 14.45-3.01 21.68 1.63 4.42 6.25 7.16 10.88 7.01 5.09-0.14 10.67 0.82 15.28-1.84 2.58-1.51 2.77-4.72 3.46-7.29-5.4-1.56-10.83-3.02-16.29-4.38-2.51-7-1.52-15.72 4.5-20.64z" opacity=".89"/>
<path d="m700.33 824.89c2.19-0.66 4.4-1.32 6.6-1.98 1.1 6.1 3.31 12.43 1.73 18.64-1.56 5.4-7.29 8.46-12.7 7.98-7.36-0.5-15.48 1.59-22.08-2.64-5.35 3.23-11.78 2.75-17.77 2.58-2.96-0.06-5.62-1.41-8.2-2.68-2.74 1.57-5.77 2.73-8.97 2.7-10.33 0.1-20.66-0.05-31 0.05-3.3-0.01-6.86 0.19-9.8-1.58-3.54-1.98-5.67-5.93-5.87-9.91-0.21-4.42 1.17-8.7 2.28-12.93 2.22 0.71 4.45 1.42 6.69 2.12-0.88 3.83-2.41 7.72-1.75 11.71 0.51 2.44 3.13 3.68 5.47 3.54 11.02 0.01 22.04 0 33.06 0 2.32-0.06 5.75-0.45 6.24-3.26 0.54-3.89 0.13-7.84 0.21-11.75h7.06c0.07 4.01-0.32 8.05 0.19 12.04 1.37 3.69 6.09 2.83 9.22 3.04 3.12-0.26 8.05 0.7 9.31-3.11 0.54-3.96 0.15-7.98 0.22-11.97h7.06c0.06 3.99-0.3 8.02 0.18 12 0.5 2.31 3.2 2.99 5.26 2.99 5.17 0 10.36 0.19 15.52-0.1 2.66-0.1 4.27-2.91 3.97-5.35-0.28-4.11-1.33-8.11-2.13-12.13z" opacity=".89"/>
<path d="m565.71 827.5c2.26-0.02 4.53-0.02 6.81-0.02-0.06 7.18 0.08 14.37-0.03 21.56-0.16 6.44-3.81 12.94-9.79 15.66-4.25 2.12-9.11 1.85-13.72 1.83 0-2.36 0.01-4.71 0.03-7.06 4.4-0.05 9.46 0.67 13.14-2.31 3.07-2.37 3.35-6.56 3.52-10.12 0.13-6.52-0.01-13.03 0.04-19.54z" opacity=".89"/>
<path d="m861.71 827.49c2.36-0.01 4.73-0.01 7.11-0.01-0.07 7.52 0.05 15.05-0.03 22.57-0.07 5.09-1.74 10.65-6.24 13.55-5.46 3.72-12.37 2.86-18.62 2.93-7.57 0.27-15.04-4.67-17.48-11.89-3.32-8.56-0.49-17.92 3.3-25.82 2.11 0.97 4.23 1.97 6.34 2.98-2.6 5.71-5.12 11.99-3.72 18.37 0.83 4.76 4.91 8.76 9.75 9.29 4.6 0.43 9.35 0.5 13.89-0.53 3.58-0.82 5.65-4.46 5.64-7.95 0.18-7.83-0.02-15.66 0.06-23.49z" opacity=".89"/>
<path d="m215.72 860.32c1.76-1.75 3.51-3.5 5.28-5.25 1.8 1.78 3.6 3.57 5.41 5.36-1.78 1.85-3.57 3.68-5.38 5.5-1.74-1.9-3.53-3.76-5.31-5.61z" opacity=".89"/>
<path d="m253.64 855.8c1.79 1.71 3.55 3.44 5.31 5.18l-5.16 5.19c-1.61-1.74-3.24-3.45-4.88-5.14 1.59-1.73 3.17-3.47 4.73-5.23z" opacity=".89"/>
<path d="m665.72 860.86c1.75-1.78 3.51-3.55 5.27-5.31 1.82 1.81 3.64 3.63 5.45 5.46-1.8 1.79-3.59 3.58-5.39 5.37-1.76-1.87-3.54-3.7-5.33-5.52z" opacity=".89"/>
<path d="m168.38 861.24c1.61-1.71 3.22-3.44 4.82-5.16 1.75 1.71 3.49 3.43 5.24 5.16-1.73 1.73-3.46 3.46-5.2 5.18-1.59-1.76-3.22-3.48-4.86-5.18z" opacity=".89"/>
<path d="m180.42 861.34c1.61-1.74 3.23-3.45 4.88-5.15 1.75 1.7 3.49 3.41 5.25 5.11-1.65 1.72-3.31 3.42-4.97 5.13-1.74-1.68-3.46-3.38-5.16-5.09z" opacity=".89"/>
<path d="m260.94 861.12c1.62-1.76 3.26-3.49 4.92-5.2 1.73 1.72 3.46 3.46 5.2 5.2-1.69 1.67-3.37 3.36-5.06 5.04-1.69-1.68-3.38-3.37-5.06-5.04z" opacity=".89"/>
</g>
</svg>